<?xml version="1.0" encoding="UTF-8"?>
<svg id="Layer_1" data-name="Layer 1" xmlns="http://www.w3.org/2000/svg" viewBox="0 0 396.305 122.8967">
  <defs>
    <style>
      .cls-1 {
        fill: #a084dc;
      }

      .cls-2 {
        fill: #ebc7e6;
      }

      .cls-3 {
        fill: #fff;
        font-family: NasalizationRg-Regular, Nasalization;
        font-size: 74.5218px;
      }

      .cls-4 {
        fill: #f15a24;
      }

      .cls-5 {
        fill: #bface2;
      }

      .cls-6 {
        fill: #f7931e;
      }

      .cls-7 {
        fill: #645cbb;
      }

      .cls-8 {
        fill: #969aa8;
      }

      .cls-9 {
        fill: #b3b3b3;
      }

      .cls-10 {
        fill: #b5b5b5;
      }
    </style>
  </defs>
  <text class="cls-3" transform="translate(8.1986 103.2229)"><tspan x="0" y="0" xml:space="preserve">   stromify</tspan></text>
  <path class="cls-10" d="m76.4908,55.7847l-10.5348,8.5486c-4.0822,3.3125-8.4747,6.223-13.1165,8.691l-2.6175,1.3917c-5.8775,3.125-12.0648,5.6287-18.4615,7.4706l-4.7283,1.3615c-5.8475,1.6837-11.8491,2.7773-17.9146,3.2642l-9.1176-.1472,17.1615-6.7963c2.4178-.9575,4.793-2.019,7.1191-3.1815l13.0284-6.5113c2.5844-1.2916,5.1077-2.7022,7.5618-4.2271l10.8311-6.7302,12.1611-10.5881-.618,4.1866c.1266,2.2854,1.9913,4.0881,4.2797,4.1372l4.966-.8699Z"/>
  <path class="cls-8" d="m69.3796,59.8874l-3.3276,2.8704c-4.0863,3.5249-8.5191,6.627-13.2305,9.2586h0c-4.4513,2.4864-9.1714,4.4865-14.0839,5.9679l-3.4872,1.0516c-4.0499,1.2213-8.2201,2.0612-12.4582,2.5098-.7991.0846-1.6042.1128-2.4077.1053l-.9146-.0085c-1.0696-.0099-1.421-1.4918-.4493-1.8947l7.5969-3.15c2.4014-.9957,4.7568-2.099,7.059-3.3066l8.0157-4.2044c2.5342-1.3292,5.0026-2.7804,7.3965-4.3483l5.7119-3.7411c.9901-.6485,1.9237-1.3791,2.7912-2.1843l5.7117-5.3018c.6511-.6044,1.7396-.0304,1.6572.8739l-.0445.4881c-.0076.0834-.0074.1692.005.253.2465,1.6685,1.6654,2.9678,3.3347,3.0526.0815.0041.1638-.0034.2432-.0181h0c.9827-.1818,1.6272,1.0821.8803,1.7264Z"/>
  <text class="cls-3" transform="translate(8.0843 102.7815)"><tspan x="0" y="0">A</tspan></text>
  <g>
    <path class="cls-9" d="m100.0114,5.9585L118.0768.8428c2.9727-1.0479,4.391.3412,3.4152,3.3357l-5.151,17.7182"/>
    <polyline class="cls-6" points="86.0222 43.7435 86.6545 56.7217 81.2821 49.5709 70.2615 53.0668 73.9842 42.4427 65.7481 37.2495 79.2114 37.0911"/>
    <polyline class="cls-4" points="86.297 41.7317 86.7898 51.8555 82.5991 46.2777 74.0036 49.0056 76.9065 40.7175 70.4806 36.668 80.9843 36.5425"/>
    <polygon class="cls-2" points="83.1471 44.0294 78.7614 39.7457 83.0228 33.6296 89.1612 39.6252 83.1471 44.0294"/>
    <path class="cls-5" d="m82.6232,29.0184l3.3366.0994-1.5953,3.8627-1.671.374-2.5451.392h0c-.8483.2488-1.6407.6587-2.3314,1.2099l-2.6291,2.0915.2449-1.2835c.2794-1.463.9992-2.8042,2.0655-3.8412l.8872-.8655"/>
    <path class="cls-5" d="m95.272,38.0306l-.1779-3.3334-3.8241,1.6858-.3346,1.6794-.332,2.5537h0c-.2288.8539-.6199,1.6558-1.1547,2.3592l-2.0291,2.6776,1.2774-.275c1.4561-.3137,2.7799-1.0649,3.7916-2.1553l.8444-.9074"/>
    <path class="cls-1" d="m77.7956,28.9047l16.1232,15.7482c.1736.1695.4543.1662.6239-.0073l22.7816-23.3241c.1697-.1737,2.5799-12.9577,2.406-13.1276l-6.093-5.9513c-.174-.1699-12.8977,2.5405-13.0673,2.7142l-22.7816,23.3241c-.1695.1736-.1662.4543.0073.6239Z"/>
    <path class="cls-5" d="m86.8008,20.7192l-1.8357,3.3994-1.0867,3.3887-.7068,3.7598-4.2165-1.8839h0c-1.9366.0613-3.8419.4958-5.6121,1.2831l-6.7262,2.9929,1.2233-2.5853c1.3981-2.9475,3.6629-5.3949,6.496-7.0132l2.3568-1.345"/>
    <path class="cls-5" d="m101.9931,35.2573l-3.7384,2.5841-3.7333,1.546-3,.0353,1.9965,3.8839h0c-.0157,1.9375-.4053,3.8525-1.1507,5.6407l-2.8338,6.7948,2.5156-1.266c2.9406-1.479,5.3569-3.8241,6.9193-6.7177l1.2684-2.3471"/>
    <path class="cls-7" d="m107.2286,3.605L118.4322.1126c1.9533-.6084,3.9638,1.3553,3.4015,3.3224l-3.2181,11.2845"/>
    <rect class="cls-7" x="99.756" y="7.6323" width="6.2636" height="23.4204" transform="translate(17.159 79.4308) rotate(-45.6742)"/>
  </g>
</svg>